<mxfile host="65bd71144e">
    <diagram id="v3rwzgFzJjhjKckEDBex" name="Page-1">
        <mxGraphModel dx="1122" dy="754" grid="1" gridSize="10" guides="1" tooltips="1" connect="1" arrows="1" fold="1" page="1" pageScale="1" pageWidth="827" pageHeight="1169" math="0" shadow="0">
            <root>
                <mxCell id="0"/>
                <mxCell id="1" parent="0"/>
                <mxCell id="6" value="" style="group;rounded=0;glass=0;sketch=1;" parent="1" vertex="1" connectable="0">
                    <mxGeometry x="279" y="220" width="270" height="270" as="geometry"/>
                </mxCell>
                <mxCell id="2" value="" style="whiteSpace=wrap;html=1;aspect=fixed;" parent="6" vertex="1">
                    <mxGeometry width="270" height="270" as="geometry"/>
                </mxCell>
                <mxCell id="3" value="&lt;h1&gt;存储体&lt;br&gt;&lt;/h1&gt;" style="rounded=0;whiteSpace=wrap;html=1;align=center;" parent="6" vertex="1">
                    <mxGeometry x="75" y="40" width="120" height="110" as="geometry"/>
                </mxCell>
                <mxCell id="4" value="MAR" style="rounded=0;whiteSpace=wrap;html=1;" parent="6" vertex="1">
                    <mxGeometry x="30" y="190" width="90" height="60" as="geometry"/>
                </mxCell>
                <mxCell id="5" value="MDR" style="rounded=0;whiteSpace=wrap;html=1;" parent="6" vertex="1">
                    <mxGeometry x="150" y="190" width="90" height="60" as="geometry"/>
                </mxCell>
                <mxCell id="7" value="&lt;b style=&quot;font-size: 17px&quot;&gt;Memory Address Register&lt;br&gt;(存储地址寄存器)&lt;/b&gt;" style="text;html=1;align=center;verticalAlign=middle;resizable=0;points=[];autosize=1;strokeColor=none;" parent="1" vertex="1">
                    <mxGeometry x="299" y="530" width="230" height="40" as="geometry"/>
                </mxCell>
                <mxCell id="9" value="&lt;b style=&quot;font-size: 17px&quot;&gt;Memory Data Register&lt;br&gt;(存储数据寄存器)&lt;/b&gt;" style="text;html=1;align=center;verticalAlign=middle;resizable=0;points=[];autosize=1;strokeColor=none;" parent="1" vertex="1">
                    <mxGeometry x="314" y="600" width="200" height="40" as="geometry"/>
                </mxCell>
            </root>
        </mxGraphModel>
    </diagram>
</mxfile>